<mxfile host="Electron" agent="Mozilla/5.0 (Macintosh; Intel Mac OS X 10_15_7) AppleWebKit/537.36 (KHTML, like Gecko) draw.io/24.7.5 Chrome/126.0.6478.183 Electron/31.3.0 Safari/537.36" version="24.7.5">
  <diagram name="Page-1" id="kSaXsMtaTjVyDh5Biyxq">
    <mxGraphModel dx="673" dy="469" grid="1" gridSize="10" guides="1" tooltips="1" connect="1" arrows="1" fold="1" page="1" pageScale="1" pageWidth="827" pageHeight="1169" math="0" shadow="0">
      <root>
        <mxCell id="0" />
        <mxCell id="1" parent="0" />
        <mxCell id="Z1ke3k1eTAVOP6oinHz8-47" value="" style="rounded=0;whiteSpace=wrap;html=1;fillColor=none;dashed=1;" vertex="1" parent="1">
          <mxGeometry x="260" y="200" width="230" height="270" as="geometry" />
        </mxCell>
        <mxCell id="Z1ke3k1eTAVOP6oinHz8-22" value="" style="rounded=0;whiteSpace=wrap;html=1;fillColor=none;dashed=1;" vertex="1" parent="1">
          <mxGeometry x="351" y="503" width="275" height="200" as="geometry" />
        </mxCell>
        <mxCell id="Z1ke3k1eTAVOP6oinHz8-49" style="edgeStyle=orthogonalEdgeStyle;rounded=0;orthogonalLoop=1;jettySize=auto;html=1;entryX=0;entryY=0.5;entryDx=0;entryDy=0;" edge="1" parent="1" source="Z1ke3k1eTAVOP6oinHz8-1" target="Z1ke3k1eTAVOP6oinHz8-40">
          <mxGeometry relative="1" as="geometry" />
        </mxCell>
        <mxCell id="Z1ke3k1eTAVOP6oinHz8-50" style="edgeStyle=orthogonalEdgeStyle;rounded=0;orthogonalLoop=1;jettySize=auto;html=1;entryX=0;entryY=0.5;entryDx=0;entryDy=0;" edge="1" parent="1" source="Z1ke3k1eTAVOP6oinHz8-1" target="Z1ke3k1eTAVOP6oinHz8-41">
          <mxGeometry relative="1" as="geometry" />
        </mxCell>
        <mxCell id="Z1ke3k1eTAVOP6oinHz8-51" style="edgeStyle=orthogonalEdgeStyle;rounded=0;orthogonalLoop=1;jettySize=auto;html=1;entryX=0;entryY=0.5;entryDx=0;entryDy=0;" edge="1" parent="1" source="Z1ke3k1eTAVOP6oinHz8-1" target="Z1ke3k1eTAVOP6oinHz8-42">
          <mxGeometry relative="1" as="geometry" />
        </mxCell>
        <mxCell id="Z1ke3k1eTAVOP6oinHz8-74" style="edgeStyle=orthogonalEdgeStyle;rounded=0;orthogonalLoop=1;jettySize=auto;html=1;entryX=0;entryY=0.5;entryDx=0;entryDy=0;" edge="1" parent="1" source="Z1ke3k1eTAVOP6oinHz8-1" target="Z1ke3k1eTAVOP6oinHz8-68">
          <mxGeometry relative="1" as="geometry">
            <Array as="points">
              <mxPoint x="150" y="54" />
            </Array>
          </mxGeometry>
        </mxCell>
        <mxCell id="Z1ke3k1eTAVOP6oinHz8-75" value="Feature PR" style="edgeLabel;html=1;align=center;verticalAlign=middle;resizable=0;points=[];" vertex="1" connectable="0" parent="Z1ke3k1eTAVOP6oinHz8-74">
          <mxGeometry x="-0.4648" y="2" relative="1" as="geometry">
            <mxPoint x="52" y="-110" as="offset" />
          </mxGeometry>
        </mxCell>
        <mxCell id="Z1ke3k1eTAVOP6oinHz8-1" value="Dev" style="shape=umlActor;verticalLabelPosition=bottom;verticalAlign=top;html=1;outlineConnect=0;" vertex="1" parent="1">
          <mxGeometry x="136" y="298" width="30" height="60" as="geometry" />
        </mxCell>
        <mxCell id="Z1ke3k1eTAVOP6oinHz8-3" value="User" style="shape=umlActor;verticalLabelPosition=bottom;verticalAlign=top;html=1;outlineConnect=0;" vertex="1" parent="1">
          <mxGeometry x="136" y="576" width="30" height="60" as="geometry" />
        </mxCell>
        <mxCell id="Z1ke3k1eTAVOP6oinHz8-9" value="" style="aspect=fixed;sketch=0;html=1;dashed=0;whitespace=wrap;verticalLabelPosition=bottom;verticalAlign=top;fillColor=#2875E2;strokeColor=#ffffff;points=[[0.005,0.63,0],[0.1,0.2,0],[0.9,0.2,0],[0.5,0,0],[0.995,0.63,0],[0.72,0.99,0],[0.5,1,0],[0.28,0.99,0]];shape=mxgraph.kubernetes.icon2;kubernetesLabel=1;prIcon=svc" vertex="1" parent="1">
          <mxGeometry x="477" y="583" width="50" height="48" as="geometry" />
        </mxCell>
        <mxCell id="Z1ke3k1eTAVOP6oinHz8-10" value="llama" style="aspect=fixed;sketch=0;html=1;dashed=0;whitespace=wrap;verticalLabelPosition=bottom;verticalAlign=top;fillColor=#2875E2;strokeColor=#ffffff;points=[[0.005,0.63,0],[0.1,0.2,0],[0.9,0.2,0],[0.5,0,0],[0.995,0.63,0],[0.72,0.99,0],[0.5,1,0],[0.28,0.99,0]];shape=mxgraph.kubernetes.icon2;kubernetesLabel=1;prIcon=ns" vertex="1" parent="1">
          <mxGeometry x="353" y="506" width="52.5" height="50.4" as="geometry" />
        </mxCell>
        <mxCell id="Z1ke3k1eTAVOP6oinHz8-11" value="" style="aspect=fixed;sketch=0;html=1;dashed=0;whitespace=wrap;verticalLabelPosition=bottom;verticalAlign=top;fillColor=#2875E2;strokeColor=#ffffff;points=[[0.005,0.63,0],[0.1,0.2,0],[0.9,0.2,0],[0.5,0,0],[0.995,0.63,0],[0.72,0.99,0],[0.5,1,0],[0.28,0.99,0]];shape=mxgraph.kubernetes.icon2;kubernetesLabel=1;prIcon=pod" vertex="1" parent="1">
          <mxGeometry x="566" y="641" width="50" height="48" as="geometry" />
        </mxCell>
        <mxCell id="Z1ke3k1eTAVOP6oinHz8-12" value="" style="aspect=fixed;sketch=0;html=1;dashed=0;whitespace=wrap;verticalLabelPosition=bottom;verticalAlign=top;fillColor=#2875E2;strokeColor=#ffffff;points=[[0.005,0.63,0],[0.1,0.2,0],[0.9,0.2,0],[0.5,0,0],[0.995,0.63,0],[0.72,0.99,0],[0.5,1,0],[0.28,0.99,0]];shape=mxgraph.kubernetes.icon2;kubernetesLabel=1;prIcon=ing" vertex="1" parent="1">
          <mxGeometry x="386" y="583" width="50" height="48" as="geometry" />
        </mxCell>
        <mxCell id="Z1ke3k1eTAVOP6oinHz8-14" value="" style="aspect=fixed;sketch=0;html=1;dashed=0;whitespace=wrap;verticalLabelPosition=bottom;verticalAlign=top;fillColor=#2875E2;strokeColor=#ffffff;points=[[0.005,0.63,0],[0.1,0.2,0],[0.9,0.2,0],[0.5,0,0],[0.995,0.63,0],[0.72,0.99,0],[0.5,1,0],[0.28,0.99,0]];shape=mxgraph.kubernetes.icon2;kubernetesLabel=1;prIcon=pod" vertex="1" parent="1">
          <mxGeometry x="566" y="523" width="50" height="48" as="geometry" />
        </mxCell>
        <mxCell id="Z1ke3k1eTAVOP6oinHz8-15" value="" style="aspect=fixed;sketch=0;html=1;dashed=0;whitespace=wrap;verticalLabelPosition=bottom;verticalAlign=top;fillColor=#2875E2;strokeColor=#ffffff;points=[[0.005,0.63,0],[0.1,0.2,0],[0.9,0.2,0],[0.5,0,0],[0.995,0.63,0],[0.72,0.99,0],[0.5,1,0],[0.28,0.99,0]];shape=mxgraph.kubernetes.icon2;kubernetesLabel=1;prIcon=pod" vertex="1" parent="1">
          <mxGeometry x="566" y="583" width="50" height="48" as="geometry" />
        </mxCell>
        <mxCell id="Z1ke3k1eTAVOP6oinHz8-16" style="edgeStyle=orthogonalEdgeStyle;rounded=0;orthogonalLoop=1;jettySize=auto;html=1;entryX=0.5;entryY=1;entryDx=0;entryDy=0;entryPerimeter=0;" edge="1" parent="1" source="Z1ke3k1eTAVOP6oinHz8-11" target="Z1ke3k1eTAVOP6oinHz8-9">
          <mxGeometry relative="1" as="geometry" />
        </mxCell>
        <mxCell id="Z1ke3k1eTAVOP6oinHz8-18" style="edgeStyle=orthogonalEdgeStyle;rounded=0;orthogonalLoop=1;jettySize=auto;html=1;entryX=0.5;entryY=0;entryDx=0;entryDy=0;entryPerimeter=0;" edge="1" parent="1" source="Z1ke3k1eTAVOP6oinHz8-14" target="Z1ke3k1eTAVOP6oinHz8-9">
          <mxGeometry relative="1" as="geometry" />
        </mxCell>
        <mxCell id="Z1ke3k1eTAVOP6oinHz8-19" style="edgeStyle=orthogonalEdgeStyle;rounded=0;orthogonalLoop=1;jettySize=auto;html=1;entryX=0.974;entryY=0.511;entryDx=0;entryDy=0;entryPerimeter=0;" edge="1" parent="1" source="Z1ke3k1eTAVOP6oinHz8-15" target="Z1ke3k1eTAVOP6oinHz8-9">
          <mxGeometry relative="1" as="geometry" />
        </mxCell>
        <mxCell id="Z1ke3k1eTAVOP6oinHz8-21" style="edgeStyle=orthogonalEdgeStyle;rounded=0;orthogonalLoop=1;jettySize=auto;html=1;entryX=0.971;entryY=0.5;entryDx=0;entryDy=0;entryPerimeter=0;" edge="1" parent="1" source="Z1ke3k1eTAVOP6oinHz8-9" target="Z1ke3k1eTAVOP6oinHz8-12">
          <mxGeometry relative="1" as="geometry" />
        </mxCell>
        <mxCell id="Z1ke3k1eTAVOP6oinHz8-23" style="edgeStyle=orthogonalEdgeStyle;rounded=0;orthogonalLoop=1;jettySize=auto;html=1;entryX=0.007;entryY=0.479;entryDx=0;entryDy=0;entryPerimeter=0;" edge="1" parent="1" source="Z1ke3k1eTAVOP6oinHz8-3" target="Z1ke3k1eTAVOP6oinHz8-12">
          <mxGeometry relative="1" as="geometry" />
        </mxCell>
        <mxCell id="Z1ke3k1eTAVOP6oinHz8-24" value="/api/completions" style="edgeLabel;html=1;align=center;verticalAlign=middle;resizable=0;points=[];" vertex="1" connectable="0" parent="Z1ke3k1eTAVOP6oinHz8-23">
          <mxGeometry x="-0.1786" y="-1" relative="1" as="geometry">
            <mxPoint y="-11" as="offset" />
          </mxGeometry>
        </mxCell>
        <mxCell id="Z1ke3k1eTAVOP6oinHz8-25" value="Argo App" style="shape=note;whiteSpace=wrap;html=1;backgroundOutline=1;darkOpacity=0.05;size=15;" vertex="1" parent="1">
          <mxGeometry x="506" y="463" width="50" height="60" as="geometry" />
        </mxCell>
        <mxCell id="Z1ke3k1eTAVOP6oinHz8-28" value="infra&lt;br&gt;repo" style="shape=datastore;whiteSpace=wrap;html=1;" vertex="1" parent="1">
          <mxGeometry x="594.2" y="150" width="60" height="60" as="geometry" />
        </mxCell>
        <mxCell id="Z1ke3k1eTAVOP6oinHz8-44" style="edgeStyle=orthogonalEdgeStyle;rounded=0;orthogonalLoop=1;jettySize=auto;html=1;entryX=1;entryY=0.5;entryDx=0;entryDy=0;" edge="1" parent="1" source="Z1ke3k1eTAVOP6oinHz8-31" target="Z1ke3k1eTAVOP6oinHz8-40">
          <mxGeometry relative="1" as="geometry">
            <mxPoint x="360" y="300" as="sourcePoint" />
            <Array as="points">
              <mxPoint x="370" y="328" />
              <mxPoint x="370" y="236" />
            </Array>
          </mxGeometry>
        </mxCell>
        <mxCell id="Z1ke3k1eTAVOP6oinHz8-45" style="edgeStyle=orthogonalEdgeStyle;rounded=0;orthogonalLoop=1;jettySize=auto;html=1;entryX=1;entryY=0.5;entryDx=0;entryDy=0;" edge="1" parent="1">
          <mxGeometry relative="1" as="geometry">
            <mxPoint x="374.99999999999994" y="328" as="sourcePoint" />
            <mxPoint x="342" y="328" as="targetPoint" />
          </mxGeometry>
        </mxCell>
        <mxCell id="Z1ke3k1eTAVOP6oinHz8-46" style="edgeStyle=orthogonalEdgeStyle;rounded=0;orthogonalLoop=1;jettySize=auto;html=1;entryX=1;entryY=0.5;entryDx=0;entryDy=0;" edge="1" parent="1">
          <mxGeometry relative="1" as="geometry">
            <mxPoint x="375" y="328" as="sourcePoint" />
            <mxPoint x="342" y="414" as="targetPoint" />
            <Array as="points">
              <mxPoint x="370" y="328" />
              <mxPoint x="370" y="414" />
            </Array>
          </mxGeometry>
        </mxCell>
        <mxCell id="Z1ke3k1eTAVOP6oinHz8-52" style="edgeStyle=orthogonalEdgeStyle;rounded=0;orthogonalLoop=1;jettySize=auto;html=1;" edge="1" parent="1">
          <mxGeometry relative="1" as="geometry">
            <mxPoint x="203" y="327" as="targetPoint" />
            <mxPoint x="403.027027027027" y="298" as="sourcePoint" />
            <Array as="points">
              <mxPoint x="403" y="180" />
              <mxPoint x="203" y="180" />
            </Array>
          </mxGeometry>
        </mxCell>
        <mxCell id="Z1ke3k1eTAVOP6oinHz8-53" value="Create workflow from template" style="edgeLabel;html=1;align=center;verticalAlign=middle;resizable=0;points=[];" vertex="1" connectable="0" parent="Z1ke3k1eTAVOP6oinHz8-52">
          <mxGeometry x="0.0507" y="2" relative="1" as="geometry">
            <mxPoint x="28" y="-12" as="offset" />
          </mxGeometry>
        </mxCell>
        <mxCell id="Z1ke3k1eTAVOP6oinHz8-31" value="workflow&lt;br&gt;template" style="sketch=0;outlineConnect=0;fontColor=#232F3E;gradientColor=none;strokeColor=#232F3E;fillColor=none;dashed=0;verticalLabelPosition=bottom;verticalAlign=top;align=center;html=1;fontSize=12;fontStyle=0;aspect=fixed;shape=mxgraph.aws4.resourceIcon;resIcon=mxgraph.aws4.template;" vertex="1" parent="1">
          <mxGeometry x="375" y="298" width="60" height="60" as="geometry" />
        </mxCell>
        <mxCell id="Z1ke3k1eTAVOP6oinHz8-37" style="edgeStyle=orthogonalEdgeStyle;rounded=0;orthogonalLoop=1;jettySize=auto;html=1;" edge="1" parent="1" source="Z1ke3k1eTAVOP6oinHz8-36" target="Z1ke3k1eTAVOP6oinHz8-31">
          <mxGeometry relative="1" as="geometry" />
        </mxCell>
        <mxCell id="Z1ke3k1eTAVOP6oinHz8-36" value="Argo App" style="shape=note;whiteSpace=wrap;html=1;backgroundOutline=1;darkOpacity=0.05;size=15;" vertex="1" parent="1">
          <mxGeometry x="470" y="298" width="50" height="60" as="geometry" />
        </mxCell>
        <mxCell id="Z1ke3k1eTAVOP6oinHz8-40" value="workflow-1" style="shape=image;verticalLabelPosition=bottom;labelBackgroundColor=default;verticalAlign=top;aspect=fixed;imageAspect=0;image=https://cdn-icons-png.freepik.com/512/268/268132.png;" vertex="1" parent="1">
          <mxGeometry x="290" y="210" width="52" height="52" as="geometry" />
        </mxCell>
        <mxCell id="Z1ke3k1eTAVOP6oinHz8-41" value="workflow-2" style="shape=image;verticalLabelPosition=bottom;labelBackgroundColor=default;verticalAlign=top;aspect=fixed;imageAspect=0;image=https://cdn-icons-png.freepik.com/512/268/268132.png;" vertex="1" parent="1">
          <mxGeometry x="290" y="302" width="52" height="52" as="geometry" />
        </mxCell>
        <mxCell id="Z1ke3k1eTAVOP6oinHz8-42" value="workflow-3" style="shape=image;verticalLabelPosition=bottom;labelBackgroundColor=default;verticalAlign=top;aspect=fixed;imageAspect=0;image=https://cdn-icons-png.freepik.com/512/268/268132.png;" vertex="1" parent="1">
          <mxGeometry x="290" y="390" width="52" height="52" as="geometry" />
        </mxCell>
        <mxCell id="Z1ke3k1eTAVOP6oinHz8-48" value="argo" style="aspect=fixed;sketch=0;html=1;dashed=0;whitespace=wrap;verticalLabelPosition=bottom;verticalAlign=top;fillColor=#2875E2;strokeColor=#ffffff;points=[[0.005,0.63,0],[0.1,0.2,0],[0.9,0.2,0],[0.5,0,0],[0.995,0.63,0],[0.72,0.99,0],[0.5,1,0],[0.28,0.99,0]];shape=mxgraph.kubernetes.icon2;kubernetesLabel=1;prIcon=ns" vertex="1" parent="1">
          <mxGeometry x="435" y="203" width="52.5" height="50.4" as="geometry" />
        </mxCell>
        <mxCell id="Z1ke3k1eTAVOP6oinHz8-54" style="edgeStyle=orthogonalEdgeStyle;rounded=0;orthogonalLoop=1;jettySize=auto;html=1;entryX=0;entryY=0.5;entryDx=0;entryDy=0;entryPerimeter=0;" edge="1" parent="1" target="Z1ke3k1eTAVOP6oinHz8-25">
          <mxGeometry relative="1" as="geometry">
            <mxPoint x="405" y="400" as="sourcePoint" />
            <Array as="points">
              <mxPoint x="405" y="493" />
            </Array>
          </mxGeometry>
        </mxCell>
        <mxCell id="Z1ke3k1eTAVOP6oinHz8-55" value="Rolls out" style="edgeLabel;html=1;align=center;verticalAlign=middle;resizable=0;points=[];" vertex="1" connectable="0" parent="Z1ke3k1eTAVOP6oinHz8-54">
          <mxGeometry x="0.3292" relative="1" as="geometry">
            <mxPoint x="9" y="-8" as="offset" />
          </mxGeometry>
        </mxCell>
        <mxCell id="Z1ke3k1eTAVOP6oinHz8-65" style="edgeStyle=orthogonalEdgeStyle;rounded=0;orthogonalLoop=1;jettySize=auto;html=1;entryX=0.5;entryY=1;entryDx=0;entryDy=0;" edge="1" parent="1" source="Z1ke3k1eTAVOP6oinHz8-58" target="Z1ke3k1eTAVOP6oinHz8-28">
          <mxGeometry relative="1" as="geometry" />
        </mxCell>
        <mxCell id="Z1ke3k1eTAVOP6oinHz8-66" value="watches" style="edgeLabel;html=1;align=center;verticalAlign=middle;resizable=0;points=[];" vertex="1" connectable="0" parent="Z1ke3k1eTAVOP6oinHz8-65">
          <mxGeometry x="-0.2732" y="-1" relative="1" as="geometry">
            <mxPoint x="-1" y="9" as="offset" />
          </mxGeometry>
        </mxCell>
        <mxCell id="Z1ke3k1eTAVOP6oinHz8-58" value="" style="shape=image;verticalLabelPosition=bottom;labelBackgroundColor=default;verticalAlign=top;aspect=fixed;imageAspect=0;image=https://www.opsmx.com/wp-content/uploads/2022/07/Argo-1-e1630327305635-1.png;clipPath=inset(0% 28.33% 1.26% 26.67%);" vertex="1" parent="1">
          <mxGeometry x="590" y="278.22" width="68.4" height="99.56" as="geometry" />
        </mxCell>
        <mxCell id="Z1ke3k1eTAVOP6oinHz8-59" style="edgeStyle=orthogonalEdgeStyle;rounded=0;orthogonalLoop=1;jettySize=auto;html=1;entryX=1.062;entryY=0.508;entryDx=0;entryDy=0;entryPerimeter=0;" edge="1" parent="1" source="Z1ke3k1eTAVOP6oinHz8-58" target="Z1ke3k1eTAVOP6oinHz8-36">
          <mxGeometry relative="1" as="geometry" />
        </mxCell>
        <mxCell id="Z1ke3k1eTAVOP6oinHz8-60" style="edgeStyle=orthogonalEdgeStyle;rounded=0;orthogonalLoop=1;jettySize=auto;html=1;entryX=0;entryY=0;entryDx=17.5;entryDy=0;entryPerimeter=0;" edge="1" parent="1" source="Z1ke3k1eTAVOP6oinHz8-58" target="Z1ke3k1eTAVOP6oinHz8-25">
          <mxGeometry relative="1" as="geometry">
            <Array as="points">
              <mxPoint x="624" y="420" />
              <mxPoint x="524" y="420" />
            </Array>
          </mxGeometry>
        </mxCell>
        <mxCell id="Z1ke3k1eTAVOP6oinHz8-67" value="Rolls out" style="edgeLabel;html=1;align=center;verticalAlign=middle;resizable=0;points=[];" vertex="1" connectable="0" parent="Z1ke3k1eTAVOP6oinHz8-60">
          <mxGeometry x="0.1717" y="-1" relative="1" as="geometry">
            <mxPoint x="12" y="-9" as="offset" />
          </mxGeometry>
        </mxCell>
        <mxCell id="Z1ke3k1eTAVOP6oinHz8-64" value="" style="sketch=0;html=1;aspect=fixed;strokeColor=none;shadow=0;fillColor=#000000;verticalAlign=top;labelPosition=center;verticalLabelPosition=bottom;shape=mxgraph.gcp2.arrow_cycle" vertex="1" parent="1">
          <mxGeometry x="628.4" y="224.9" width="30" height="28.5" as="geometry" />
        </mxCell>
        <mxCell id="Z1ke3k1eTAVOP6oinHz8-68" value="app&lt;br&gt;repo" style="shape=datastore;whiteSpace=wrap;html=1;" vertex="1" parent="1">
          <mxGeometry x="446.00000000000006" y="24" width="60" height="60" as="geometry" />
        </mxCell>
        <mxCell id="Z1ke3k1eTAVOP6oinHz8-70" style="edgeStyle=orthogonalEdgeStyle;rounded=0;orthogonalLoop=1;jettySize=auto;html=1;entryX=1;entryY=0.5;entryDx=0;entryDy=0;" edge="1" parent="1" source="Z1ke3k1eTAVOP6oinHz8-69" target="Z1ke3k1eTAVOP6oinHz8-68">
          <mxGeometry relative="1" as="geometry" />
        </mxCell>
        <mxCell id="Z1ke3k1eTAVOP6oinHz8-71" value="Builds new&lt;br&gt;image" style="edgeLabel;html=1;align=center;verticalAlign=middle;resizable=0;points=[];" vertex="1" connectable="0" parent="Z1ke3k1eTAVOP6oinHz8-70">
          <mxGeometry x="-0.1117" relative="1" as="geometry">
            <mxPoint y="16" as="offset" />
          </mxGeometry>
        </mxCell>
        <mxCell id="Z1ke3k1eTAVOP6oinHz8-72" style="edgeStyle=orthogonalEdgeStyle;rounded=0;orthogonalLoop=1;jettySize=auto;html=1;entryX=0.5;entryY=0;entryDx=0;entryDy=0;" edge="1" parent="1" source="Z1ke3k1eTAVOP6oinHz8-69" target="Z1ke3k1eTAVOP6oinHz8-28">
          <mxGeometry relative="1" as="geometry" />
        </mxCell>
        <mxCell id="Z1ke3k1eTAVOP6oinHz8-73" value="Updates&lt;br&gt;image tag" style="edgeLabel;html=1;align=center;verticalAlign=middle;resizable=0;points=[];" vertex="1" connectable="0" parent="Z1ke3k1eTAVOP6oinHz8-72">
          <mxGeometry x="-0.1641" y="1" relative="1" as="geometry">
            <mxPoint x="29" as="offset" />
          </mxGeometry>
        </mxCell>
        <mxCell id="Z1ke3k1eTAVOP6oinHz8-69" value="" style="shape=image;verticalLabelPosition=bottom;labelBackgroundColor=default;verticalAlign=top;aspect=fixed;imageAspect=0;image=https://a.slack-edge.com/80588/img/services/jenkins-ci_512.png;imageBackground=none;clipPath=inset(10.33% 20.33% 10.33% 20%);" vertex="1" parent="1">
          <mxGeometry x="591.36" y="10.34" width="65.68" height="87.33" as="geometry" />
        </mxCell>
        <mxCell id="Z1ke3k1eTAVOP6oinHz8-77" style="edgeStyle=orthogonalEdgeStyle;rounded=0;orthogonalLoop=1;jettySize=auto;html=1;entryX=1;entryY=0.5;entryDx=0;entryDy=0;" edge="1" parent="1" source="Z1ke3k1eTAVOP6oinHz8-76" target="Z1ke3k1eTAVOP6oinHz8-28">
          <mxGeometry relative="1" as="geometry" />
        </mxCell>
        <mxCell id="Z1ke3k1eTAVOP6oinHz8-78" value="Infra PR" style="edgeLabel;html=1;align=center;verticalAlign=middle;resizable=0;points=[];" vertex="1" connectable="0" parent="Z1ke3k1eTAVOP6oinHz8-77">
          <mxGeometry x="-0.1715" y="1" relative="1" as="geometry">
            <mxPoint x="-4" y="-11" as="offset" />
          </mxGeometry>
        </mxCell>
        <mxCell id="Z1ke3k1eTAVOP6oinHz8-76" value="Admin" style="shape=umlActor;verticalLabelPosition=bottom;verticalAlign=top;html=1;outlineConnect=0;" vertex="1" parent="1">
          <mxGeometry x="723" y="150" width="30" height="60" as="geometry" />
        </mxCell>
      </root>
    </mxGraphModel>
  </diagram>
</mxfile>
